<svg xmlns="http://www.w3.org/2000/svg" xmlns:xlink="http://www.w3.org/1999/xlink" width="2000" zoomAndPan="magnify" viewBox="0 0 1500 1499.999933" height="2000" preserveAspectRatio="xMidYMid meet" version="1.0"><defs><g/></defs><rect x="-150" width="1800" fill="#ffffff" y="-149.999993" height="1799.99992" fill-opacity="1"/><rect x="-150" width="1800" fill="#ffffff" y="-149.999993" height="1799.99992" fill-opacity="1"/><g fill="#000000" fill-opacity="1"><g transform="translate(413.99707, 1125.500127)"><g><path d="M 56 0 L 616 0 L 616 -112 L 280 -112 L 280 -224 L 168 -224 L 168 -112 L 56 -112 Z M 56 -336 L 168 -336 L 168 -448 L 56 -448 Z M 168 -448 L 504 -448 L 504 -560 L 168 -560 Z M 280 -224 L 504 -224 L 504 -336 L 280 -336 Z M 504 -336 L 616 -336 L 616 -448 L 504 -448 Z M 504 -336 "/></g></g></g><g fill="#000000" fill-opacity="1"><g transform="translate(330.000005, 453.625458)"><g><path d="M 42 0 L 154 0 L 154 -28 L 42 -28 Z M 14 -28 L 42 -28 L 42 -140 L 14 -140 Z M 14 -28 "/></g></g></g><g fill="#000000" fill-opacity="1"><g transform="translate(497.99549, 453.625458)"><g><path d="M 14 0 L 154 0 L 154 -28 L 42 -28 L 42 -56 L 126 -56 L 126 -84 L 42 -84 L 42 -112 L 154 -112 L 154 -140 L 14 -140 Z M 14 0 "/></g></g></g><g fill="#000000" fill-opacity="1"><g transform="translate(665.990976, 453.625458)"><g><path d="M 126 -56 L 98 -56 L 98 -28 L 126 -28 Z M 14 -56 L 42 -56 L 42 -140 L 14 -140 Z M 42 -28 L 70 -28 L 70 -56 L 42 -56 Z M 70 0 L 98 0 L 98 -28 L 70 -28 Z M 126 -56 L 154 -56 L 154 -140 L 126 -140 Z M 126 -56 "/></g></g></g><g fill="#000000" fill-opacity="1"><g transform="translate(833.986454, 453.625458)"><g><path d="M 14 0 L 154 0 L 154 -28 L 42 -28 L 42 -56 L 126 -56 L 126 -84 L 42 -84 L 42 -112 L 154 -112 L 154 -140 L 14 -140 Z M 14 0 "/></g></g></g><g fill="#000000" fill-opacity="1"><g transform="translate(1001.981955, 453.625458)"><g><path d="M 42 0 L 154 0 L 154 -28 L 42 -28 Z M 14 -28 L 42 -28 L 42 -140 L 14 -140 Z M 14 -28 "/></g></g></g></svg>