<svg xmlns="http://www.w3.org/2000/svg" xmlns:xlink="http://www.w3.org/1999/xlink" width="2000" zoomAndPan="magnify" viewBox="0 0 1500 1499.999933" height="2000" preserveAspectRatio="xMidYMid meet" version="1.0"><defs><clipPath id="7eef116198"><path d="M 341.871094 499 L 392 499 L 392 697 L 341.871094 697 Z M 341.871094 499 " clip-rule="nonzero"/></clipPath><clipPath id="e464fef186"><path d="M 1102 499 L 1157.871094 499 L 1157.871094 697 L 1102 697 Z M 1102 499 " clip-rule="nonzero"/></clipPath><clipPath id="f4a7b77669"><path d="M 391 294 L 1103 294 L 1103 1205.988281 L 391 1205.988281 Z M 391 294 " clip-rule="nonzero"/></clipPath></defs><rect x="-150" width="1800" fill="#ffffff" y="-149.999993" height="1799.99992" fill-opacity="1"/><rect x="-150" width="1800" fill="#ffffff" y="-149.999993" height="1799.99992" fill-opacity="1"/><path fill="#000000" d="M 391.449219 696.855469 L 441.023438 696.855469 L 441.023438 746.445312 L 391.449219 746.445312 Z M 391.449219 696.855469 " fill-opacity="1" fill-rule="nonzero"/><g clip-path="url(#7eef116198)"><path fill="#000000" d="M 341.871094 499.496094 L 391.449219 499.496094 L 391.449219 696.855469 L 341.871094 696.855469 Z M 341.871094 499.496094 " fill-opacity="1" fill-rule="nonzero"/></g><path fill="#000000" d="M 1047.585938 696.855469 L 1102.726562 696.855469 L 1102.726562 746.445312 L 1047.585938 746.445312 Z M 1047.585938 696.855469 " fill-opacity="1" fill-rule="nonzero"/><g clip-path="url(#e464fef186)"><path fill="#000000" d="M 1102.726562 499.496094 L 1157.871094 499.496094 L 1157.871094 696.855469 L 1102.726562 696.855469 Z M 1102.726562 499.496094 " fill-opacity="1" fill-rule="nonzero"/></g><g clip-path="url(#f4a7b77669)"><path fill="#000000" d="M 948.9375 696.855469 L 948.9375 745.941406 L 1047.585938 745.941406 L 1047.585938 803.125 L 897.84375 803.125 L 897.84375 846.644531 L 848.265625 846.644531 L 848.265625 901.800781 L 793.125 901.800781 L 793.125 1106.75 L 897.84375 1106.75 L 897.84375 1205.425781 L 588.746094 1205.425781 L 588.746094 1106.75 L 700.546875 1106.75 L 700.546875 901.800781 L 645.402344 901.800781 L 645.402344 846.644531 L 588.746094 846.644531 L 588.746094 803.125 L 440.519531 803.125 L 440.519531 745.941406 L 544.730469 745.941406 L 544.730469 696.855469 L 495.660156 696.855469 L 495.660156 499.496094 L 391.449219 499.496094 L 391.449219 442.316406 L 495.660156 442.316406 L 495.660156 344.140625 L 440.519531 344.140625 L 440.519531 294.550781 L 1047.585938 294.550781 L 1047.585938 344.140625 L 1004.078125 344.140625 L 1004.078125 442.316406 L 1102.726562 442.316406 L 1102.726562 499.496094 L 1004.078125 499.496094 L 1004.078125 696.855469 Z M 948.9375 696.855469 " fill-opacity="1" fill-rule="nonzero"/></g></svg>